<svg width="194" height="187" viewBox="0 0 194 187" fill="none" xmlns="http://www.w3.org/2000/svg">
<rect width="194" height="187" fill="#D5D5D5"/>
<g id="SMS System">
<path d="M-1082 -707C-1082 -817.457 -992.457 -907 -882 -907H14853C14963.5 -907 15053 -817.457 15053 -707V3745C15053 3855.46 14963.5 3945 14853 3945H-882C-992.456 3945 -1082 3855.46 -1082 3745V-707Z" fill="#59330D"/>
<path d="M-882 -906H14853V-908H-882V-906ZM15052 -707V3745H15054V-707H15052ZM14853 3944H-882V3946H14853V3944ZM-1081 3745V-707H-1083V3745H-1081ZM-882 3944C-991.904 3944 -1081 3854.9 -1081 3745H-1083C-1083 3856.01 -993.009 3946 -882 3946V3944ZM15052 3745C15052 3854.9 14962.9 3944 14853 3944V3946C14964 3946 15054 3856.01 15054 3745H15052ZM14853 -906C14962.9 -906 15052 -816.905 15052 -707H15054C15054 -818.009 14964 -908 14853 -908V-906ZM-882 -908C-993.009 -908 -1083 -818.009 -1083 -707H-1081C-1081 -816.905 -991.905 -906 -882 -906V-908Z" fill="black" fill-opacity="0.1"/>
<g id="1-Message-Empty_System">
<rect width="1440" height="1024" transform="translate(-634 -392)" fill="#F8F8F8"/>
<g id="Frame 154">
<g id="Frame 6588">
<g id="empty-message-illustration">
<g id="Group">
<path id="Vector" d="M101.751 17.2849C101.751 17.2849 106.785 49.6567 161.049 50.5502C209.24 51.3435 193.924 108.662 176.818 126.685C154.659 150.033 111.231 143.925 108.951 171.101C106.672 198.276 45.4492 187.726 46.4919 146.752C47.7891 95.783 19.8706 111.281 5.73691 97.6479C-4.40693 87.8628 -0.920225 42.5682 31.2322 37.3826C58.2877 33.0191 56.8851 21.5562 59.0362 13.0702C62.1382 0.831684 93.5029 -10.2546 101.751 17.2849Z" fill="#F9E6D2"/>
<g id="Group_2">
<path id="Vector_2" d="M152.8 132.517C152.803 133.339 152.643 134.154 152.33 134.915C152.018 135.675 151.558 136.367 150.977 136.95C150.397 137.532 149.707 137.995 148.948 138.31C148.188 138.626 147.374 138.788 146.551 138.789L46.3264 138.992C45.5041 138.994 44.6895 138.834 43.9292 138.521C43.1688 138.208 42.4776 137.749 41.895 137.168C41.3125 136.588 40.8501 135.898 40.5343 135.139C40.2185 134.38 40.0554 133.566 40.0544 132.744L39.9136 62.2731L95.3897 27.4449C95.6379 27.2883 95.9251 27.2045 96.2185 27.2031C96.512 27.2018 96.8 27.2828 97.0496 27.4371L151.359 61.2392L152.659 62.0458V63.1733L152.8 132.517Z" fill="#DD7E1F"/>
<path id="Vector_3" d="M144.622 33.5117H47.3536C47.1216 33.5117 46.9336 33.6998 46.9336 33.9317V138.015C46.9336 138.247 47.1216 138.435 47.3536 138.435H144.622C144.854 138.435 145.042 138.247 145.042 138.015V33.9317C145.042 33.6998 144.854 33.5117 144.622 33.5117Z" fill="#ECB379"/>
<path id="Vector_4" d="M146.451 138.69L96.7044 100.76C96.6643 100.73 96.6321 100.69 96.6103 100.645C96.5886 100.599 96.5779 100.549 96.5792 100.499C96.5805 100.448 96.5937 100.399 96.6178 100.355C96.6419 100.311 96.6761 100.273 96.7177 100.244L152.158 62.3523C152.205 62.3197 152.261 62.3007 152.319 62.2974C152.377 62.2941 152.434 62.3066 152.486 62.3336C152.537 62.3605 152.58 62.4009 152.61 62.4504C152.64 62.4999 152.655 62.5567 152.656 62.6145L152.796 132.484C152.799 134.125 152.158 135.702 151.01 136.875C149.863 138.049 148.301 138.725 146.66 138.759C146.584 138.76 146.511 138.736 146.451 138.69Z" fill="#F2CCA6"/>
<path id="Vector_5" d="M46.4105 138.888L96.0049 100.76C96.0449 100.73 96.077 100.69 96.0985 100.644C96.1201 100.599 96.1306 100.549 96.1291 100.499C96.1276 100.448 96.1142 100.399 96.0899 100.355C96.0656 100.311 96.0312 100.273 95.9895 100.245L40.3992 62.5743C40.3513 62.5418 40.2955 62.5231 40.2377 62.52C40.1799 62.5169 40.1224 62.5296 40.0713 62.5568C40.0202 62.5839 39.9775 62.6245 39.9477 62.6741C39.918 62.7237 39.9023 62.7805 39.9023 62.8383L40.0423 132.707C40.0456 134.348 40.6929 135.923 41.8448 137.092C42.9968 138.261 44.5614 138.931 46.2023 138.958C46.2776 138.959 46.3509 138.934 46.4105 138.888Z" fill="#F2CCA6"/>
<path id="Vector_6" d="M146.543 138.758L46.3186 138.959C44.8024 138.957 43.3378 138.408 42.1953 137.411C41.0528 136.414 40.3095 135.038 40.1026 133.536C40.0685 133.279 40.0981 133.019 40.1888 132.777C40.2795 132.535 40.4285 132.319 40.6225 132.149L95.2855 83.7877C95.571 83.5351 95.9388 83.3953 96.32 83.3945C96.7012 83.3938 97.0696 83.5321 97.3561 83.7835L152.211 131.926C152.406 132.095 152.556 132.31 152.648 132.552C152.739 132.794 152.77 133.054 152.737 133.31C152.536 134.813 151.798 136.192 150.66 137.194C149.522 138.195 148.059 138.751 146.543 138.758Z" fill="#E6994C"/>
</g>
</g>
</g>
</g>
</g>
</g>
</g>
</svg>
