<svg width="40" height="40" viewBox="0 0 40 40" fill="none" xmlns="http://www.w3.org/2000/svg">
<path d="M11.2668 36.6673H28.7334C33.3334 36.6673 35.1668 33.8507 35.3834 30.4173L36.2501 16.6507C36.4834 13.0507 33.6168 10.0007 30.0001 10.0007C28.9834 10.0007 28.0501 9.41732 27.5834 8.51732L26.3834 6.10065C25.6168 4.58398 23.6168 3.33398 21.9168 3.33398H18.1001C16.3834 3.33398 14.3834 4.58398 13.6168 6.10065L12.4168 8.51732C11.9501 9.41732 11.0168 10.0007 10.0001 10.0007C6.38345 10.0007 3.51678 13.0507 3.75012 16.6507L4.61678 30.4173C4.81678 33.8507 6.66678 36.6673 11.2668 36.6673Z" stroke="#DD7E1F" stroke-width="2.5" stroke-linecap="round" stroke-linejoin="round"/>
<path d="M17.5 13.334H22.5" stroke="#DD7E1F" stroke-width="2.5" stroke-linecap="round" stroke-linejoin="round"/>
<path d="M19.9999 29.9993C22.9833 29.9993 25.4166 27.566 25.4166 24.5827C25.4166 21.5993 22.9833 19.166 19.9999 19.166C17.0166 19.166 14.5833 21.5993 14.5833 24.5827C14.5833 27.566 17.0166 29.9993 19.9999 29.9993Z" stroke="#DD7E1F" stroke-width="2.5" stroke-linecap="round" stroke-linejoin="round"/>
</svg>
