<svg width="16" height="17" viewBox="0 0 16 17" fill="none" xmlns="http://www.w3.org/2000/svg">
<path d="M6.00004 15.1673H10C13.3334 15.1673 14.6667 13.834 14.6667 10.5007V6.50065C14.6667 3.16732 13.3334 1.83398 10 1.83398H6.00004C2.66671 1.83398 1.33337 3.16732 1.33337 6.50065V10.5007C1.33337 13.834 2.66671 15.1673 6.00004 15.1673Z" stroke="#DD7E1F" stroke-linecap="round" stroke-linejoin="round"/>
<path d="M5.99996 7.16667C6.73634 7.16667 7.33329 6.56971 7.33329 5.83333C7.33329 5.09695 6.73634 4.5 5.99996 4.5C5.26358 4.5 4.66663 5.09695 4.66663 5.83333C4.66663 6.56971 5.26358 7.16667 5.99996 7.16667Z" stroke="#DD7E1F" stroke-linecap="round" stroke-linejoin="round"/>
<path d="M1.78003 13.133L5.0667 10.9264C5.59336 10.573 6.35336 10.613 6.8267 11.0197L7.0467 11.213C7.5667 11.6597 8.4067 11.6597 8.9267 11.213L11.7 8.83305C12.22 8.38638 13.06 8.38638 13.58 8.83305L14.6667 9.76638" stroke="#DD7E1F" stroke-linecap="round" stroke-linejoin="round"/>
</svg>
