<svg width="25" height="25" viewBox="0 0 25 25" fill="none" xmlns="http://www.w3.org/2000/svg">
<g id="vuesax/linear/truck-tick">
<g id="vuesax/linear/truck-tick_2">
<g id="truck-tick">
<path id="Vector" d="M9.5 3V13C9.5 14.1 10.4 15 11.5 15H22.5V8.62C21.77 9.49 20.65 10.03 19.41 10C18.4 9.98 17.49 9.59 16.81 8.94C16.5 8.68 16.24 8.34999 16.04 7.98999C15.68 7.37999 15.48 6.65997 15.5 5.90997C15.53 4.73997 16.05 3.71 16.86 3H9.5Z" stroke="#333333" stroke-width="1.5" stroke-linecap="round" stroke-linejoin="round"/>
<path id="Vector_2" d="M2.5 15V18C2.5 19.66 3.84 21 5.5 21H6.5C6.5 19.9 7.4 19 8.5 19C9.6 19 10.5 19.9 10.5 21H14.5C14.5 19.9 15.4 19 16.5 19C17.6 19 18.5 19.9 18.5 21H19.5C21.16 21 22.5 19.66 22.5 18V15H11.5C10.4 15 9.5 14.1 9.5 13V6H7.65997C6.93997 6 6.27998 6.39001 5.91998 7.01001L4.21002 10H5.5C6.05 10 6.5 10.45 6.5 11V14C6.5 14.55 6.05 15 5.5 15H2.5Z" stroke="#333333" stroke-width="1.5" stroke-linecap="round" stroke-linejoin="round"/>
<path id="Vector_3" d="M16.5 23C15.3954 23 14.5 22.1046 14.5 21C14.5 19.8954 15.3954 19 16.5 19C17.6046 19 18.5 19.8954 18.5 21C18.5 22.1046 17.6046 23 16.5 23Z" stroke="#333333" stroke-width="1.5" stroke-linecap="round" stroke-linejoin="round"/>
<path id="Vector_4" d="M8.5 23C7.39543 23 6.5 22.1046 6.5 21C6.5 19.8954 7.39543 19 8.5 19C9.60457 19 10.5 19.8954 10.5 21C10.5 22.1046 9.60457 23 8.5 23Z" stroke="#333333" stroke-width="1.5" stroke-linecap="round" stroke-linejoin="round"/>
<path id="Vector_5" d="M2.5 13V15H5.5C6.05 15 6.5 14.55 6.5 14V11C6.5 10.45 6.05 10 5.5 10H4.21002L2.5 13Z" stroke="#333333" stroke-width="1.5" stroke-linecap="round" stroke-linejoin="round"/>
<g id="Group">
<path id="Vector_6" d="M15.5001 5.90999C15.4801 6.65999 15.6801 7.38001 16.0401 7.99001C16.2401 8.35001 16.5001 8.68002 16.8101 8.94002C17.4901 9.59002 18.4 9.98002 19.41 10C20.65 10.03 21.7701 9.49001 22.5001 8.62001C22.6401 8.47001 22.7601 8.30002 22.8701 8.13002C23.2601 7.54002 23.4801 6.84005 23.5001 6.09005C23.5301 4.83005 22.9701 3.68001 22.0701 2.93001C21.3901 2.37001 20.5301 2.02002 19.5901 2.00002C18.5401 1.98002 17.5801 2.36002 16.8601 3.00002C16.0501 3.71002 15.5301 4.73999 15.5001 5.90999Z" fill="#B3E5BD" stroke="#2E853F" stroke-width="2.5" stroke-miterlimit="10" stroke-linecap="round" stroke-linejoin="round"/>
</g>
</g>
</g>
</g>
</svg>
