<svg width="40" height="40" viewBox="0 0 40 40" fill="none" xmlns="http://www.w3.org/2000/svg">
<g id="vuesax/linear/message-time">
<g id="message-time">
<path id="Vector" d="M36.6666 12.3831V22.3831C36.6666 24.8831 35.8332 26.9665 34.3666 28.4331C32.9166 29.8831 30.8333 30.7165 28.3333 30.7165V34.2665C28.3333 35.5998 26.8499 36.3999 25.7499 35.6665L18.3333 30.7165H14.7999C14.9333 30.2165 14.9999 29.6998 14.9999 29.1665C14.9999 27.4665 14.3499 25.8998 13.2833 24.7165C12.0833 23.3498 10.2999 22.4998 8.33325 22.4998C6.46659 22.4998 4.76659 23.2665 3.54993 24.5165C3.39993 23.8499 3.33325 23.1331 3.33325 22.3831V12.3831C3.33325 7.38314 6.66659 4.0498 11.6666 4.0498H28.3333C33.3333 4.0498 36.6666 7.38314 36.6666 12.3831Z" stroke="#FCFCFC" stroke-width="2.5" stroke-miterlimit="10" stroke-linecap="round" stroke-linejoin="round"/>
<g id="Group">
<path id="Vector_2" d="M15.0006 29.1667C15.0006 31.1667 14.1173 32.95 12.7339 34.1667C11.5506 35.2 10.0172 35.8333 8.3339 35.8333C4.65057 35.8333 1.66724 32.85 1.66724 29.1667C1.66724 27.0667 2.6339 25.1833 4.16724 23.9667C5.31724 23.05 6.76724 22.5 8.3339 22.5C12.0172 22.5 15.0006 25.4833 15.0006 29.1667Z" stroke="#FCFCFC" stroke-width="2.5" stroke-miterlimit="10" stroke-linecap="round" stroke-linejoin="round"/>
<path id="Vector_3" d="M11.6672 29.1663C11.6672 31.0063 10.1738 32.4997 8.33382 32.4997C6.49382 32.4997 5.37049 30.6463 5.37049 30.6463M5.37049 30.6463H6.87715M5.37049 30.6463V32.313M5.00049 29.1663C5.00049 27.3263 6.48049 25.833 8.33382 25.833C10.5572 25.833 11.6672 27.6863 11.6672 27.6863M11.6672 27.6863V26.0197M11.6672 27.6863H10.1872" stroke="#FCFCFC" stroke-width="1.3" stroke-linecap="round" stroke-linejoin="round"/>
</g>
<path id="Vector_4" d="M14.1667 17.5H25.8334" stroke="#FCFCFC" stroke-width="2.5" stroke-miterlimit="10" stroke-linecap="round" stroke-linejoin="round"/>
</g>
</g>
</svg>
