<svg width="222" height="228" viewBox="0 0 222 228" fill="none" xmlns="http://www.w3.org/2000/svg">
<path d="M24.163 100.03C24.163 100.03 62.9339 98.4774 71.3124 34.7463C78.7527 -21.853 144.131 3.90892 163.029 26.4708C187.51 55.6977 174.46 105.974 206.129 112.326C237.798 118.677 217.118 189.293 169.046 182.534C109.246 174.126 123.714 209.07 105.762 223.86C92.8785 234.475 40.0513 224.257 38.2907 185.723C36.8091 153.298 23.1314 153.401 13.4365 149.724C-0.545717 144.421 -9.35605 106.018 24.163 100.03Z" fill="#F9E6D2"/>
<path d="M155.962 170.807L117.871 133.168L110.328 140.801L148.42 178.44L155.962 170.807Z" fill="#ECB379"/>
<path d="M170.513 180.922L140.878 151.639C140.713 151.476 140.447 151.478 140.284 151.643L129.067 162.994C128.904 163.159 128.906 163.425 129.071 163.588L158.706 192.871C158.871 193.034 159.137 193.033 159.3 192.868L170.517 181.516C170.68 181.351 170.678 181.085 170.513 180.922Z" fill="#DD7E1F"/>
<path d="M84.1106 152.098C110.316 152.098 131.56 130.854 131.56 104.649C131.56 78.4431 110.316 57.1992 84.1106 57.1992C57.905 57.1992 36.6611 78.4431 36.6611 104.649C36.6611 130.854 57.905 152.098 84.1106 152.098Z" fill="#DD7E1F"/>
<path d="M84.1105 144.356C106.04 144.356 123.818 126.578 123.818 104.649C123.818 82.7189 106.04 64.9414 84.1105 64.9414C62.1808 64.9414 44.4033 82.7189 44.4033 104.649C44.4033 126.578 62.1808 144.356 84.1105 144.356Z" fill="#F9E6D2"/>
</svg>
