<svg width="25" height="25" viewBox="0 0 25 25" fill="none" xmlns="http://www.w3.org/2000/svg">
<g id="vuesax/linear/truck-tick">
<g id="vuesax/linear/truck-tick_2">
<g id="truck-tick">
<path id="Vector" d="M9.5 3V13C9.5 14.1 10.4 15 11.5 15H22.5V8.62C21.77 9.49 20.65 10.03 19.41 10C18.4 9.98 17.49 9.59 16.81 8.94C16.5 8.68 16.24 8.34999 16.04 7.98999C15.68 7.37999 15.48 6.65997 15.5 5.90997C15.53 4.73997 16.05 3.71 16.86 3H9.5Z" stroke="#CD2026" stroke-width="1.5" stroke-linecap="round" stroke-linejoin="round"/>
<path id="Vector_2" d="M2.5 15V18C2.5 19.66 3.84 21 5.5 21H6.5C6.5 19.9 7.4 19 8.5 19C9.6 19 10.5 19.9 10.5 21H14.5C14.5 19.9 15.4 19 16.5 19C17.6 19 18.5 19.9 18.5 21H19.5C21.16 21 22.5 19.66 22.5 18V15H11.5C10.4 15 9.5 14.1 9.5 13V6H7.65997C6.93997 6 6.27998 6.39001 5.91998 7.01001L4.21002 10H5.5C6.05 10 6.5 10.45 6.5 11V14C6.5 14.55 6.05 15 5.5 15H2.5Z" stroke="#CD2026" stroke-width="1.5" stroke-linecap="round" stroke-linejoin="round"/>
<path id="Vector_3" d="M16.5 23C15.3954 23 14.5 22.1046 14.5 21C14.5 19.8954 15.3954 19 16.5 19C17.6046 19 18.5 19.8954 18.5 21C18.5 22.1046 17.6046 23 16.5 23Z" stroke="#CD2026" stroke-width="1.5" stroke-linecap="round" stroke-linejoin="round"/>
<path id="Vector_4" d="M8.5 23C7.39543 23 6.5 22.1046 6.5 21C6.5 19.8954 7.39543 19 8.5 19C9.60457 19 10.5 19.8954 10.5 21C10.5 22.1046 9.60457 23 8.5 23Z" stroke="#CD2026" stroke-width="1.5" stroke-linecap="round" stroke-linejoin="round"/>
<path id="Vector_5" d="M2.5 13V15H5.5C6.05 15 6.5 14.55 6.5 14V11C6.5 10.45 6.05 10 5.5 10H4.21002L2.5 13Z" stroke="#CD2026" stroke-width="1.5" stroke-linecap="round" stroke-linejoin="round"/>
<g id="Group">
<path id="Vector_6" d="M15.5008 5.90975C15.4808 6.65975 15.6808 7.37977 16.0408 7.98977C16.2408 8.34977 16.5008 8.67978 16.8108 8.93978C17.4908 9.58978 18.4008 9.97978 19.4108 9.99978C20.6508 10.0298 21.7708 9.48977 22.5008 8.61977C22.6408 8.46977 22.7608 8.29978 22.8708 8.12978C23.2608 7.53978 23.4808 6.8398 23.5008 6.0898C23.5308 4.8298 22.9708 3.67977 22.0708 2.92977C21.3908 2.36977 20.5308 2.01978 19.5908 1.99978C18.5408 1.97978 17.5808 2.35978 16.8608 2.99978C16.0508 3.70978 15.5308 4.73975 15.5008 5.90975Z" fill="#FCE9EA" stroke="#CD2026" stroke-width="2.5" stroke-miterlimit="10" stroke-linecap="round" stroke-linejoin="round"/>
</g>
</g>
</g>
</g>
</svg>
