<svg width="44" height="44" viewBox="0 0 44 44" fill="none" xmlns="http://www.w3.org/2000/svg">
<g id="vuesax/linear/truck-tick">
<g id="vuesax/linear/truck-tick_2">
<g id="truck-tick">
<path id="Vector" d="M16.8751 4.08334V22C16.8751 23.9708 18.4876 25.5833 20.4584 25.5833H40.1667V14.1525C38.8588 15.7112 36.8521 16.6788 34.6305 16.625C32.8209 16.5892 31.1905 15.8904 29.9722 14.7258C29.4167 14.26 28.9509 13.6687 28.5925 13.0237C27.9475 11.9308 27.5892 10.6408 27.6251 9.29704C27.6788 7.20079 28.6105 5.35542 30.0617 4.08334H16.8751Z" stroke="#1A1A1A" stroke-width="2.5" stroke-linecap="round" stroke-linejoin="round"/>
<path id="Vector_2" d="M4.33342 25.5833V30.9583C4.33342 33.9325 6.73425 36.3333 9.70842 36.3333H11.5001C11.5001 34.3625 13.1126 32.75 15.0834 32.75C17.0543 32.75 18.6668 34.3625 18.6668 36.3333H25.8334C25.8334 34.3625 27.4459 32.75 29.4167 32.75C31.3876 32.75 33.0001 34.3625 33.0001 36.3333H34.7917C37.7659 36.3333 40.1667 33.9325 40.1667 30.9583V25.5833H20.4584C18.4876 25.5833 16.8751 23.9708 16.8751 22V9.45833H13.5784C12.2884 9.45833 11.1059 10.1571 10.4609 11.2679L7.39721 16.625H9.70842C10.6938 16.625 11.5001 17.4312 11.5001 18.4167V23.7917C11.5001 24.7771 10.6938 25.5833 9.70842 25.5833H4.33342Z" stroke="#1A1A1A" stroke-width="2.5" stroke-linecap="round" stroke-linejoin="round"/>
<path id="Vector_3" d="M29.4167 39.9167C27.4376 39.9167 25.8333 38.3124 25.8333 36.3333C25.8333 34.3543 27.4376 32.75 29.4167 32.75C31.3957 32.75 33 34.3543 33 36.3333C33 38.3124 31.3957 39.9167 29.4167 39.9167Z" stroke="#1A1A1A" stroke-width="2.5" stroke-linecap="round" stroke-linejoin="round"/>
<path id="Vector_4" d="M15.0834 39.9167C13.1044 39.9167 11.5001 38.3124 11.5001 36.3333C11.5001 34.3543 13.1044 32.75 15.0834 32.75C17.0624 32.75 18.6667 34.3543 18.6667 36.3333C18.6667 38.3124 17.0624 39.9167 15.0834 39.9167Z" stroke="#1A1A1A" stroke-width="2.5" stroke-linecap="round" stroke-linejoin="round"/>
<path id="Vector_5" d="M4.33333 22V25.5833H9.70833C10.6938 25.5833 11.5 24.7771 11.5 23.7917V18.4167C11.5 17.4312 10.6938 16.625 9.70833 16.625H7.39712L4.33333 22Z" stroke="#1A1A1A" stroke-width="2.5" stroke-linecap="round" stroke-linejoin="round"/>
<g id="Group">
<path id="Vector_6" d="M27.6251 9.29707C27.5892 10.6408 27.9475 11.9308 28.5925 13.0238C28.9509 13.6688 29.4167 14.26 29.9721 14.7259C31.1905 15.8905 32.8208 16.5892 34.6304 16.625C36.8521 16.6788 38.8588 15.7113 40.1667 14.1525C40.4176 13.8838 40.6326 13.5792 40.8296 13.2746C41.5284 12.2175 41.9226 10.9634 41.9584 9.61966C42.0121 7.36216 41.0088 5.30169 39.3963 3.95794C38.178 2.9546 36.6372 2.32753 34.953 2.2917C33.0718 2.25587 31.3517 2.9367 30.0617 4.08337C28.6104 5.35545 27.6788 7.20082 27.6251 9.29707Z" fill="#E6E6E6" stroke="#333333" stroke-width="2.5" stroke-miterlimit="10" stroke-linecap="round" stroke-linejoin="round"/>
</g>
</g>
</g>
</g>
</svg>
